<?xml version="1.0" standalone="no"?>
<!DOCTYPE svg PUBLIC "-//W3C//DTD SVG 20010904//EN"
 "http://www.w3.org/TR/2001/REC-SVG-20010904/DTD/svg10.dtd">
<svg version="1.0" xmlns="http://www.w3.org/2000/svg"
 width="501.000000pt" height="498.000000pt" viewBox="0 0 501.000000 498.000000"
 preserveAspectRatio="xMidYMid meet">

<g transform="translate(0.000000,498.000000) scale(0.100000,-0.100000)"
fill="#000000" stroke="none">
<path d="M2244 4849 c-45 -3 -85 -9 -90 -12 -5 -3 -54 -13 -109 -22 -55 -9
-109 -20 -120 -25 -11 -5 -36 -13 -55 -19 -237 -71 -311 -96 -370 -125 -38
-19 -86 -40 -107 -45 -42 -12 -145 -71 -180 -103 -39 -36 -29 -44 44 -40 59 4
83 13 201 73 74 38 147 69 162 69 15 0 47 7 70 15 23 8 46 15 51 15 11 0 -69
-71 -96 -86 -11 -6 -21 -23 -23 -38 -3 -22 0 -26 22 -26 30 0 32 -5 10 -27
-13 -13 -24 -14 -58 -6 -32 7 -53 6 -82 -4 -21 -8 -61 -16 -89 -19 -27 -3 -57
-12 -66 -20 -8 -8 -21 -14 -27 -14 -7 0 -12 -4 -12 -10 0 -5 -24 -10 -53 -10
-48 0 -56 -4 -114 -52 -34 -29 -62 -59 -62 -66 -1 -6 -28 -25 -61 -41 -75 -37
-99 -64 -100 -114 0 -34 4 -40 30 -50 17 -6 30 -17 30 -25 0 -20 40 -30 69
-16 14 6 52 15 84 19 l57 6 0 -39 c0 -51 18 -102 36 -102 8 0 14 -10 14 -25 0
-18 5 -25 20 -25 27 0 27 -52 0 -111 -16 -36 -20 -66 -20 -161 0 -114 1 -120
33 -180 51 -97 53 -100 73 -143 10 -22 17 -52 15 -68 -2 -19 8 -39 33 -69 20
-23 36 -47 36 -53 0 -19 34 -45 58 -45 29 0 29 36 1 66 -13 14 -19 32 -17 50
l3 29 28 -43 c30 -46 109 -129 142 -149 19 -12 19 -13 -10 -38 -41 -34 -26
-59 39 -63 39 -3 48 -7 56 -28 5 -13 18 -27 27 -31 10 -3 46 -19 81 -35 35
-15 84 -31 110 -35 26 -3 63 -14 82 -23 19 -10 69 -28 110 -40 132 -38 179
-64 200 -113 17 -37 30 -48 98 -84 91 -48 108 -52 141 -34 22 12 27 11 43 -9
10 -12 18 -30 18 -41 0 -10 5 -21 10 -24 28 -18 -3 -122 -54 -176 -103 -111
-99 -258 15 -494 33 -68 49 -87 193 -220 l58 -54 -5 -78 c-2 -43 -13 -118 -24
-168 -11 -49 -21 -115 -22 -145 -2 -57 -24 -198 -40 -260 -5 -19 -21 -61 -35
-93 -30 -67 -30 -67 -13 -67 9 0 12 -11 9 -34 -5 -39 19 -91 57 -124 31 -27
52 -33 117 -35 42 -2 49 1 52 18 2 13 -11 33 -32 54 l-35 34 46 43 c40 38 45
47 40 73 -6 27 -2 33 38 61 24 16 47 30 51 30 3 0 36 21 71 46 64 45 103 93
103 125 0 19 20 29 54 29 32 0 90 50 215 184 29 31 71 68 92 82 22 14 48 38
58 55 10 17 41 46 68 64 81 54 167 156 188 220 9 31 36 79 59 107 75 92 94
123 114 184 23 70 16 94 -28 94 -21 0 -39 10 -61 35 -31 33 -42 37 -165 61
-11 2 -43 21 -70 42 -27 22 -65 42 -86 46 -35 6 -36 8 -31 44 4 29 0 41 -16
56 -12 11 -21 24 -21 31 0 26 -59 66 -124 85 -80 22 -102 36 -173 103 -34 32
-53 58 -53 73 0 25 -26 44 -58 44 -11 0 -26 10 -34 21 -10 16 -20 20 -36 15
-17 -6 -20 -12 -15 -37 5 -26 3 -29 -13 -23 -11 4 -28 15 -39 24 -47 41 -124
64 -153 46 -8 -5 -21 -1 -32 9 -18 16 -21 16 -67 -14 -94 -62 -152 -85 -187
-74 -19 6 -45 6 -66 0 -79 -20 -93 -16 -120 35 -23 43 -23 50 -12 95 25 96
-10 129 -124 119 l-73 -6 10 26 c5 15 7 35 3 46 -5 18 4 53 28 104 19 40 7 59
-39 62 -36 3 -44 -1 -62 -26 -31 -44 -75 -61 -145 -56 -79 6 -108 21 -119 63
-18 71 39 197 103 227 19 9 71 34 115 55 68 34 89 39 147 39 64 0 69 -2 103
-35 19 -20 35 -45 35 -57 0 -26 48 -98 65 -98 27 0 21 57 -12 129 -38 80 -37
91 8 148 56 69 71 110 64 164 -6 41 -4 48 8 43 19 -7 70 65 88 124 l12 43 67
-3 c53 -2 72 1 94 17 16 11 38 25 49 32 11 6 30 24 42 39 21 26 25 27 50 16
19 -9 31 -10 40 -2 10 8 14 7 18 -2 3 -10 7 -10 17 -1 10 9 7 21 -11 58 -28
56 -47 74 -58 56 -11 -18 -75 35 -124 103 -9 14 -34 33 -55 43 -20 10 -65 46
-99 80 -62 64 -90 76 -113 48 -9 -11 -16 -12 -25 -5 -16 13 -145 60 -165 60
-9 0 -37 22 -63 48 -38 38 -47 54 -47 82 0 19 4 40 8 47 10 16 29 3 34 -22 2
-13 11 -20 26 -19 26 1 27 0 5 -33 -16 -25 -16 -26 6 -44 13 -11 36 -19 53
-19 19 0 37 -9 51 -25 26 -30 103 -56 133 -45 14 6 23 20 27 46 5 31 1 46 -23
84 -35 54 -73 92 -120 123 -63 41 -48 70 30 60 33 -5 46 -12 59 -34 10 -18 31
-34 55 -41 31 -11 41 -20 52 -53 7 -22 12 -47 9 -55 -6 -20 4 -33 39 -48 16
-7 38 -24 48 -38 11 -13 35 -31 53 -38 19 -8 53 -32 77 -54 53 -49 78 -62 116
-62 24 0 31 5 34 24 3 14 2 29 -2 33 -11 11 5 151 20 189 12 27 10 38 -11 94
-20 52 -33 70 -70 96 -25 17 -56 35 -70 39 -13 4 -35 16 -49 25 -14 10 -77 35
-140 57 -82 28 -116 44 -118 57 -4 19 -21 19 342 2 76 -4 136 7 136 25 0 51
-489 85 -836 58z m-784 -1664 c7 -9 8 -15 2 -15 -5 0 -12 7 -16 15 -3 8 -4 15
-2 15 2 0 9 -7 16 -15z"/>
<path d="M3164 4316 c-8 -22 39 -59 86 -68 19 -3 57 -14 83 -23 79 -29 129 9
72 54 -27 21 -95 39 -182 48 -43 5 -54 3 -59 -11z"/>
<path d="M4302 4001 c4 -26 2 -29 -14 -20 -25 14 -41 2 -35 -27 2 -15 -3 -30
-14 -40 -39 -35 -13 -101 35 -92 23 5 28 2 33 -23 3 -16 9 -32 13 -34 5 -3 6
-14 3 -25 -3 -11 7 -40 26 -70 36 -58 36 -60 16 -60 -8 0 -15 -7 -15 -15 0
-11 -5 -12 -25 -5 -49 19 -55 7 -51 -98 2 -69 -1 -105 -11 -125 -19 -37 -10
-57 23 -57 17 0 28 -6 31 -19 5 -21 29 -35 44 -26 5 4 6 0 3 -8 -3 -9 -13 -13
-25 -10 -26 7 -38 -26 -15 -43 14 -10 15 -17 7 -32 -16 -30 -80 -82 -101 -82
-11 0 -26 -10 -34 -22 -13 -22 -66 -236 -66 -267 0 -8 -9 -24 -20 -36 -17 -18
-20 -37 -23 -134 -2 -108 -1 -114 21 -129 12 -8 44 -46 69 -84 64 -96 89 -112
161 -104 31 4 69 8 83 9 14 1 42 11 61 21 36 19 37 19 65 0 15 -10 41 -23 58
-29 l29 -10 1 -115 c0 -63 7 -138 14 -165 12 -45 12 -54 -3 -84 -16 -30 -42
-159 -52 -256 -2 -22 -8 -73 -14 -113 -5 -40 -10 -98 -10 -127 0 -30 -5 -66
-10 -81 -6 -15 -8 -29 -5 -32 10 -11 47 34 86 105 22 40 54 82 70 94 17 12 39
42 50 66 23 54 49 163 49 207 0 17 12 86 26 151 44 203 54 275 54 415 0 132
-9 245 -30 363 -5 31 -15 85 -21 120 -25 143 -50 230 -72 248 -28 23 -37 24
-37 2 0 -9 -16 7 -35 37 -55 87 -45 107 19 40 93 -98 82 -3 -26 220 -93 194
-140 285 -157 305 -10 11 -33 47 -51 80 -42 74 -87 137 -106 148 -22 12 -17
-9 16 -70 29 -52 42 -132 20 -118 -5 3 -10 21 -10 38 0 18 -13 57 -30 87 -17
31 -29 71 -30 92 0 32 -20 68 -37 68 -3 0 -3 -13 -1 -29z m92 -440 c-2 -2 -10
-1 -19 3 -13 5 -14 8 -3 20 11 12 14 12 19 -3 4 -9 5 -18 3 -20z m158 -138
c21 -23 68 -102 68 -115 0 -2 -28 -1 -61 2 -64 6 -89 24 -89 63 0 31 30 76 51
77 3 0 17 -12 31 -27z"/>
<path d="M376 3548 c-8 -13 -22 -41 -31 -63 -9 -22 -24 -58 -34 -80 -30 -65
-51 -134 -51 -165 0 -16 -6 -33 -14 -37 -22 -14 -35 -48 -57 -155 -35 -167
-56 -324 -66 -469 -5 -80 -3 -98 11 -112 28 -28 46 -10 46 47 0 60 25 263 35
289 4 9 11 17 17 17 16 0 38 28 38 49 0 11 -9 44 -20 73 -18 50 -19 56 -4 113
9 33 18 75 21 93 6 35 14 40 33 17 24 -29 37 -14 74 86 31 83 35 103 25 116
-12 13 -16 12 -36 -13 -31 -39 -29 -27 7 41 17 31 30 71 30 87 0 17 7 36 17
43 19 14 11 45 -11 45 -9 0 -22 -10 -30 -22z m-48 -253 c-6 -14 -13 -23 -15
-21 -5 5 15 46 22 46 3 0 -1 -11 -7 -25z"/>
<path d="M2376 3037 c-12 -9 -17 -23 -14 -42 4 -38 38 -45 69 -14 19 19 23 20
31 5 5 -9 17 -16 27 -16 9 0 45 -9 78 -21 63 -21 124 -22 130 -3 2 6 -31 26
-74 44 -144 60 -211 73 -247 47z"/>
<path d="M2824 2886 c-3 -9 -16 -16 -29 -16 -31 0 -40 -27 -13 -41 49 -27 199
-2 206 34 3 16 -5 19 -111 32 -37 5 -48 3 -53 -9z"/>
<path d="M3033 2873 c-7 -2 -13 -16 -13 -29 0 -20 5 -24 31 -24 27 0 30 3 27
27 -3 27 -20 37 -45 26z"/>
<path d="M2639 2854 c-10 -13 -10 -17 2 -25 34 -21 72 -1 49 26 -16 19 -34 19
-51 -1z"/>
<path d="M260 2766 c-25 -47 -15 -112 25 -177 14 -21 25 -52 25 -69 0 -39 25
-50 52 -22 31 31 26 70 -15 131 -28 40 -37 63 -37 95 0 38 -13 66 -30 66 -4 0
-12 -11 -20 -24z"/>
<path d="M272 2507 c-15 -35 -16 -77 -2 -77 16 0 22 23 18 66 l-4 39 -12 -28z"/>
<path d="M365 2460 c-26 -27 -27 -31 -15 -59 19 -47 39 -59 56 -36 18 24 18
99 1 114 -10 8 -20 4 -42 -19z"/>
<path d="M131 2421 c-13 -8 -13 -26 2 -135 19 -132 33 -186 48 -186 5 0 12 7
16 15 5 14 8 14 24 -1 16 -14 24 -15 44 -6 14 6 25 16 25 22 0 6 5 8 10 5 6
-3 10 -27 10 -53 0 -58 11 -77 39 -69 12 3 24 1 27 -4 18 -30 38 11 26 56 -7
23 -5 33 7 43 14 11 12 15 -16 40 -32 27 -32 28 -10 37 14 7 22 19 22 35 0 23
-4 25 -43 25 -50 1 -58 10 -67 74 -9 66 -15 81 -30 81 -8 0 -18 -8 -24 -17
-14 -28 -41 -142 -41 -175 0 -57 -10 -22 -19 68 -11 107 -29 158 -50 145z"/>
<path d="M1234 2376 c-4 -9 16 -36 50 -71 60 -61 89 -68 94 -23 4 29 -36 66
-101 93 -33 13 -38 14 -43 1z"/>
<path d="M444 2235 c-4 -9 -4 -45 -1 -81 5 -52 4 -64 -8 -64 -28 0 -16 -38 14
-48 38 -13 66 -6 78 21 10 21 10 21 24 -5 15 -29 114 -118 131 -118 6 0 8 -10
5 -22 -7 -23 17 -58 38 -58 7 0 20 -9 30 -20 10 -11 26 -20 37 -20 10 0 27 9
38 20 30 30 53 25 122 -25 92 -68 129 -47 64 35 -36 45 -38 65 -6 55 29 -9 89
21 100 50 14 36 13 51 -6 70 -21 21 -34 16 -54 -21 -12 -22 -25 -30 -51 -32
-55 -6 -102 14 -185 78 -71 55 -82 60 -114 54 -19 -4 -39 -10 -45 -15 -15 -14
-45 -10 -45 6 0 32 -23 65 -47 65 -14 0 -23 6 -23 15 0 28 -30 16 -37 -15 -3
-17 -10 -33 -15 -36 -6 -4 -8 1 -5 12 8 29 -6 107 -20 112 -7 2 -16 -4 -19
-13z"/>
<path d="M2280 2105 c-16 -19 -6 -45 19 -45 23 0 35 28 20 46 -15 18 -24 18
-39 -1z"/>
<path d="M192 2078 c-7 -7 -12 -25 -12 -40 0 -22 10 -35 53 -63 28 -20 63 -51
77 -71 21 -29 30 -34 58 -31 17 1 32 0 32 -4 0 -4 9 -9 20 -12 22 -6 50 16 50
38 0 41 -32 61 -44 28 -6 -14 -9 -14 -22 5 -8 12 -31 29 -50 37 -19 8 -38 22
-42 32 -4 10 -16 18 -27 18 -13 0 -27 13 -40 37 -21 40 -33 46 -53 26z"/>
<path d="M592 1943 c4 -36 33 -39 33 -3 0 16 -6 26 -18 28 -15 3 -18 -2 -15
-25z"/>
<path d="M1134 1929 c-9 -15 45 -69 69 -69 16 0 17 -3 7 -14 -9 -12 -4 -17 32
-26 71 -18 72 -18 58 -35 -15 -18 -4 -37 18 -33 9 2 25 -5 35 -15 17 -17 21
-18 34 -4 14 14 14 19 -4 49 -12 20 -26 32 -36 30 -12 -2 -16 3 -14 20 2 22
-1 23 -52 20 -47 -3 -53 -2 -43 11 18 21 6 41 -34 60 -40 20 -60 21 -70 6z"/>
<path d="M541 1921 c-7 -5 -11 -14 -7 -19 9 -15 36 -4 36 14 0 16 -9 18 -29 5z"/>
<path d="M540 1801 c-5 -11 -10 -26 -10 -34 0 -16 -21 -27 -50 -27 -10 0 -22
-9 -25 -20 -3 -11 -15 -25 -26 -31 -14 -7 -18 -16 -14 -29 4 -13 -2 -26 -19
-41 -36 -31 -34 -83 5 -167 17 -37 43 -91 56 -121 47 -98 141 -173 159 -126 4
9 19 15 35 15 55 0 191 -125 213 -197 4 -11 23 -34 44 -49 20 -15 59 -51 85
-81 45 -48 87 -69 87 -42 0 6 -14 28 -30 50 l-31 38 35 6 c33 7 35 10 52 73 9
37 21 72 25 77 20 29 20 96 -2 167 -35 117 -46 136 -168 278 -21 25 -59 89
-85 144 -39 84 -48 97 -61 86 -9 -8 -15 -30 -15 -56 0 -55 -14 -56 -67 -6 -41
38 -155 112 -172 112 -6 0 -15 -9 -21 -19z"/>
<path d="M1534 1576 c-7 -19 24 -78 39 -73 19 6 20 36 3 62 -18 28 -34 32 -42
11z"/>
<path d="M1961 1502 c-12 -23 -5 -32 26 -32 20 0 24 5 21 22 -4 29 -34 35 -47
10z"/>
<path d="M1882 1459 c5 -32 34 -48 53 -28 23 23 9 49 -27 49 -24 0 -29 -4 -26
-21z"/>
<path d="M1460 1397 c0 -28 26 -67 46 -67 19 0 18 40 -2 68 -20 29 -44 28 -44
-1z"/>
<path d="M1482 1076 c2 -37 0 -52 -8 -49 -17 6 -28 -17 -15 -30 19 -19 12 -24
-53 -37 -82 -15 -128 -43 -124 -73 5 -33 51 -34 123 -1 33 15 79 36 102 46 24
11 54 33 68 50 l25 30 -34 38 c-19 21 -37 47 -41 59 -4 12 -15 21 -27 21 -18
0 -20 -5 -16 -54z"/>
<path d="M3056 527 c-24 -17 -18 -47 12 -58 18 -7 28 -3 48 16 14 14 24 31 21
38 -5 17 -59 20 -81 4z"/>
<path d="M3553 385 c-27 -19 -110 -40 -250 -65 -59 -10 -135 -26 -168 -35 -52
-15 -72 -16 -146 -6 -106 14 -196 14 -204 1 -6 -9 7 -24 55 -60 l25 -19 -67
-1 c-36 0 -73 -3 -81 -6 -10 -3 -17 1 -19 12 -3 15 -17 18 -118 19 -63 1 -136
5 -162 9 -29 5 -53 5 -60 -1 -8 -6 -39 -7 -83 -2 -38 4 -110 8 -160 8 -93 1
-140 -13 -140 -39 0 -17 48 -29 245 -59 202 -31 579 -27 765 9 28 5 86 14 130
21 141 19 505 171 513 213 4 21 -45 22 -75 1z"/>
</g>
</svg>
