<?xml version="1.0" standalone="no"?>
<!DOCTYPE svg PUBLIC "-//W3C//DTD SVG 20010904//EN"
 "http://www.w3.org/TR/2001/REC-SVG-20010904/DTD/svg10.dtd">
<svg version="1.0" xmlns="http://www.w3.org/2000/svg"
 width="501.000000pt" height="498.000000pt" viewBox="0 0 501.000000 498.000000"
 preserveAspectRatio="xMidYMid meet">

<g transform="translate(0.000000,498.000000) scale(0.100000,-0.100000)"
fill="#000000" stroke="none">
<path d="M2260 4852 c-35 -2 -67 -8 -71 -14 -4 -6 -44 -14 -90 -19 -97 -9
-146 -17 -174 -29 -76 -32 -190 -68 -285 -90 -30 -7 -90 -30 -132 -51 -43 -21
-95 -43 -116 -48 -41 -12 -144 -71 -179 -103 -39 -36 -29 -44 44 -40 59 4 83
13 201 73 74 38 147 69 162 69 16 0 39 4 52 9 13 4 36 11 51 15 28 7 27 6 -11
-30 -22 -20 -50 -41 -63 -48 -15 -7 -25 -22 -27 -40 -3 -26 -1 -28 22 -24 33
7 35 -14 3 -31 -17 -9 -34 -10 -58 -3 -24 6 -45 5 -74 -5 -22 -7 -62 -16 -90
-19 -27 -3 -57 -12 -66 -20 -8 -8 -21 -14 -27 -14 -7 0 -12 -4 -12 -10 0 -5
-24 -10 -53 -10 -48 0 -56 -4 -114 -52 -34 -29 -62 -59 -62 -66 -1 -6 -28 -25
-61 -41 -75 -37 -99 -64 -100 -114 0 -34 4 -40 30 -50 17 -6 30 -17 30 -25 0
-20 40 -30 69 -16 14 6 52 15 84 19 l57 6 0 -39 c0 -51 18 -102 36 -102 8 0
14 -10 14 -25 0 -18 5 -25 20 -25 27 0 27 -52 0 -111 -16 -36 -20 -66 -20
-161 0 -114 1 -120 33 -180 51 -97 53 -100 73 -143 10 -22 17 -53 15 -68 -1
-19 7 -38 26 -60 15 -18 39 -49 53 -70 16 -23 33 -37 46 -37 34 0 38 30 9 60
-19 20 -26 36 -23 56 l3 29 28 -43 c30 -46 109 -129 142 -149 19 -12 19 -13
-10 -38 -41 -34 -26 -59 39 -63 39 -3 48 -7 56 -28 5 -13 18 -27 27 -31 10 -3
46 -19 81 -35 35 -15 84 -31 110 -35 26 -3 63 -14 82 -23 19 -10 69 -28 110
-40 41 -12 101 -33 132 -47 50 -23 59 -32 71 -66 11 -35 23 -46 78 -75 102
-55 129 -63 157 -44 23 15 26 15 43 -7 11 -13 19 -31 19 -42 0 -10 5 -21 10
-24 28 -18 -3 -122 -54 -176 -103 -111 -99 -258 15 -494 33 -68 49 -87 193
-220 l58 -54 -5 -78 c-2 -43 -14 -120 -26 -172 -11 -52 -21 -117 -21 -145 0
-50 -21 -188 -39 -256 -5 -19 -21 -61 -35 -93 -30 -67 -30 -67 -13 -67 9 0 12
-11 9 -34 -10 -85 81 -170 176 -164 63 4 69 31 17 77 l-37 32 47 44 c42 39 47
48 42 74 -6 27 -2 33 38 61 24 16 47 30 51 30 3 0 36 21 71 46 64 45 103 93
103 125 0 19 20 29 54 29 32 0 90 50 215 184 29 31 71 68 92 82 22 14 48 38
58 55 10 17 41 46 68 64 81 54 167 156 188 220 9 31 36 79 59 107 76 94 98
130 116 188 20 67 13 90 -30 90 -21 0 -39 10 -61 35 -31 33 -42 37 -165 61
-11 2 -43 21 -70 42 -27 22 -65 42 -86 46 -35 6 -36 8 -31 44 4 29 0 41 -16
56 -12 11 -21 24 -21 31 0 26 -59 66 -124 85 -80 22 -102 36 -173 103 -34 32
-53 58 -53 73 0 25 -26 44 -58 44 -11 0 -26 10 -34 21 -10 16 -20 20 -36 15
-17 -6 -20 -12 -15 -37 5 -26 3 -29 -13 -23 -11 4 -28 15 -39 24 -47 41 -124
64 -153 46 -8 -5 -21 -1 -32 9 -18 16 -21 16 -67 -14 -94 -62 -152 -85 -187
-74 -19 6 -45 6 -66 0 -79 -20 -93 -16 -120 35 -23 43 -23 50 -12 95 9 33 10
58 3 74 -17 45 -35 52 -121 46 l-79 -5 10 25 c5 14 7 34 3 45 -5 18 4 53 28
104 18 38 7 59 -35 62 -33 3 -43 -2 -78 -37 -21 -23 -49 -42 -61 -42 -61 -4
-132 2 -156 13 -53 26 -51 124 6 211 32 49 34 51 132 96 41 18 82 40 91 47 11
10 44 14 107 14 102 0 116 -9 128 -80 7 -40 51 -110 69 -110 27 0 21 57 -13
130 -37 80 -35 100 15 157 46 53 57 85 58 161 1 39 -3 72 -7 72 -4 0 -8 -32
-8 -70 0 -75 -4 -84 -68 -170 -29 -37 -33 -50 -29 -82 3 -21 15 -56 26 -78 12
-23 21 -55 21 -72 l0 -31 -19 25 c-11 14 -25 47 -32 74 -20 83 -37 94 -144 94
-79 0 -94 -3 -110 -20 -10 -11 -23 -20 -29 -20 -5 0 -45 -16 -87 -36 -64 -30
-82 -44 -108 -83 -39 -62 -51 -94 -51 -141 0 -60 16 -89 57 -107 84 -34 191
-16 228 40 17 27 48 39 72 30 16 -6 14 -36 -8 -88 -7 -16 -14 -56 -15 -87 l-3
-58 88 0 c54 0 92 -5 99 -12 8 -8 10 -36 6 -93 -5 -57 -3 -84 5 -89 6 -4 11
-16 11 -26 0 -10 8 -24 18 -29 9 -6 14 -11 10 -11 -4 0 -27 12 -52 27 -32 20
-47 36 -55 64 -9 30 -20 41 -64 62 -28 14 -79 33 -112 42 -33 9 -78 25 -100
36 -22 10 -71 26 -110 35 -96 23 -185 62 -215 96 -18 19 -38 29 -69 33 -59 7
-69 15 -37 32 19 10 26 21 26 43 0 19 -5 30 -13 30 -17 0 -107 85 -133 125
-41 64 -106 146 -125 155 -24 13 -24 10 3 -45 20 -42 48 -65 34 -29 -6 14 -4
15 9 4 11 -9 13 -15 4 -20 -8 -6 -8 -14 2 -31 7 -13 12 -25 11 -26 -8 -11 1
-36 18 -50 21 -18 27 -43 11 -43 -6 0 -22 17 -38 38 -15 20 -40 51 -55 69 -22
26 -26 39 -21 68 4 23 2 35 -6 35 -6 0 -11 6 -11 14 0 8 -25 62 -55 121 l-56
108 5 113 c4 92 9 121 26 152 29 51 25 116 -7 120 -15 2 -23 11 -25 28 -2 14
-6 23 -11 22 -13 -5 -37 54 -37 93 0 38 -9 46 -43 40 -4 -1 -28 -3 -53 -6 -24
-2 -53 -9 -63 -15 -28 -15 -39 -12 -46 10 -3 11 -12 20 -19 20 -28 0 -49 26
-42 53 9 39 53 85 87 92 19 4 57 34 102 79 71 71 74 73 134 80 36 4 71 15 86
26 13 10 57 26 98 35 41 9 84 19 97 22 13 3 34 0 47 -7 22 -12 28 -10 60 14
40 31 41 49 2 54 -18 2 -24 8 -20 18 3 8 10 14 17 14 22 0 109 88 103 104 -6
14 -10 14 -49 0 -24 -9 -65 -18 -92 -21 -27 -3 -65 -14 -85 -26 -144 -83 -207
-110 -263 -111 -53 -1 -56 0 -41 16 17 19 165 98 182 98 6 0 45 17 88 38 82
40 123 54 213 73 30 6 70 19 89 27 80 34 219 72 268 72 64 0 153 18 153 32 0
23 697 -2 810 -30 l35 -9 -27 -7 c-14 -4 -113 -4 -220 1 -106 5 -201 7 -210 5
-11 -3 -18 -14 -18 -28 0 -28 16 -36 150 -79 47 -16 92 -33 100 -40 8 -7 40
-24 70 -39 64 -32 120 -82 120 -108 0 -10 7 -30 17 -44 15 -24 15 -28 -6 -71
-18 -37 -22 -61 -20 -130 1 -46 -1 -86 -4 -90 -11 -11 -72 20 -112 57 -22 20
-60 48 -85 62 -25 14 -54 36 -65 48 -11 12 -30 26 -41 30 -18 7 -23 20 -29 69
-6 54 -10 62 -37 76 -17 8 -35 15 -40 15 -5 0 -24 16 -42 35 -30 31 -39 35
-83 35 -88 0 -93 -42 -11 -97 49 -33 127 -129 127 -158 1 -44 -11 -65 -36 -65
-36 0 -89 28 -108 56 -11 17 -25 24 -48 24 -17 0 -39 5 -47 10 -13 8 -13 13 3
40 21 34 16 50 -13 43 -15 -4 -20 0 -20 15 0 17 -23 31 -52 32 -8 0 -28 -58
-28 -84 0 -26 108 -136 133 -136 27 0 121 -31 132 -44 17 -18 46 -18 66 0 22
20 19 21 113 -71 28 -28 68 -59 89 -69 21 -9 47 -31 57 -48 24 -40 110 -110
127 -104 7 3 20 -6 29 -19 23 -35 3 -54 -51 -47 -35 4 -42 1 -54 -21 -7 -14
-21 -28 -30 -31 -9 -3 -32 -17 -51 -31 -22 -17 -46 -25 -65 -24 -16 1 -47 1
-67 0 -34 -1 -38 -4 -48 -40 -6 -22 -26 -62 -45 -90 -20 -28 -31 -51 -26 -51
16 0 68 82 82 128 l12 43 67 -3 c53 -2 72 1 94 17 16 11 38 25 49 32 11 6 30
24 42 39 21 26 25 27 50 16 19 -9 31 -10 40 -2 10 8 14 7 18 -2 3 -10 7 -10
17 -1 10 9 7 21 -11 58 -28 56 -47 74 -58 56 -11 -18 -75 35 -124 103 -9 14
-34 33 -55 43 -20 10 -65 46 -99 80 -59 60 -93 77 -109 52 -7 -12 -12 -11
-109 25 -38 14 -77 26 -85 26 -9 0 -37 22 -63 48 -38 38 -47 54 -47 82 0 19 4
40 8 47 10 16 29 3 34 -22 2 -13 11 -20 26 -19 26 1 27 0 5 -33 -16 -25 -16
-26 6 -44 13 -11 38 -19 56 -19 19 0 35 -6 38 -14 14 -35 104 -70 143 -55 14
5 23 20 27 45 5 31 1 46 -23 84 -36 56 -75 95 -118 121 -61 36 -50 75 18 63
47 -9 67 -20 75 -43 3 -11 23 -25 47 -33 44 -14 56 -34 63 -103 1 -16 3 -33 4
-36 0 -4 12 -10 26 -13 14 -4 38 -20 53 -37 15 -17 41 -37 59 -44 17 -7 51
-31 75 -53 53 -49 78 -62 116 -62 24 0 31 5 34 24 3 14 2 29 -2 33 -11 11 5
151 20 189 12 27 10 38 -11 94 -20 52 -33 70 -70 96 -25 17 -56 35 -70 39 -13
4 -35 16 -49 25 -14 10 -77 35 -140 57 -82 28 -116 44 -118 57 -4 19 -21 19
342 2 105 -6 168 17 119 42 -62 31 -535 57 -803 44z m632 -2278 c14 -14 21
-14 33 -4 20 16 115 -13 146 -46 14 -15 34 -24 52 -24 27 0 29 2 24 30 -7 35
11 41 30 11 7 -11 25 -21 40 -23 18 -2 29 -10 33 -25 7 -30 93 -118 144 -148
24 -14 70 -32 102 -40 38 -10 66 -24 79 -40 73 -90 80 -113 45 -158 -22 -27
-27 -48 -8 -29 19 19 87 14 124 -9 19 -11 34 -24 34 -29 0 -14 71 -42 133 -50
53 -8 65 -14 98 -49 28 -32 44 -41 69 -41 31 0 32 -1 26 -32 -10 -53 -52 -129
-101 -187 -49 -57 -74 -102 -95 -164 -15 -47 -103 -144 -174 -191 -30 -20 -63
-51 -74 -70 -11 -19 -36 -43 -54 -53 -19 -10 -63 -49 -98 -88 -92 -100 -164
-158 -218 -175 -40 -13 -47 -19 -50 -43 -4 -37 -61 -91 -148 -142 -107 -62
-124 -80 -117 -119 4 -29 1 -36 -36 -65 -23 -18 -41 -39 -41 -47 0 -7 14 -27
30 -42 37 -35 40 -65 8 -58 -13 3 -39 7 -60 11 -25 4 -47 17 -72 45 -31 35
-36 47 -36 89 0 28 -5 51 -11 53 -8 3 -4 19 11 48 29 56 60 176 66 255 7 105
25 227 46 318 13 56 19 106 16 139 -5 47 -10 56 -61 102 -31 28 -72 64 -92 80
-60 48 -97 114 -171 306 -36 96 -22 216 34 282 64 76 82 112 82 166 0 61 -24
128 -52 143 -14 8 -25 6 -43 -5 -31 -20 -40 -20 -72 1 l-26 18 34 9 c19 4 70
9 114 10 77 1 83 3 155 48 41 26 77 48 79 48 3 0 13 -7 23 -16z"/>
<path d="M3165 4320 c-12 -19 42 -67 83 -73 21 -3 59 -13 85 -22 79 -29 129 9
72 54 -42 32 -226 64 -240 41z m162 -25 c61 -16 90 -36 79 -54 -11 -17 -49
-13 -97 9 -24 11 -55 20 -69 20 -14 0 -33 9 -43 20 -16 20 -16 20 28 20 24 0
70 -7 102 -15z"/>
<path d="M4297 4018 c-2 -7 0 -21 5 -31 8 -16 7 -17 -11 -7 -28 14 -44 4 -38
-26 2 -15 -3 -30 -14 -40 -39 -35 -13 -101 35 -92 23 5 28 2 33 -23 3 -16 9
-32 13 -34 5 -3 6 -14 3 -25 -3 -11 7 -40 26 -70 36 -58 36 -60 16 -60 -8 0
-15 -7 -15 -15 0 -11 -5 -12 -25 -5 -48 18 -53 7 -52 -103 0 -65 -4 -110 -12
-125 -17 -32 -7 -52 25 -52 17 0 28 -6 31 -19 5 -21 29 -35 44 -26 5 4 6 0 3
-8 -3 -9 -13 -13 -25 -10 -26 7 -38 -26 -15 -43 14 -10 15 -17 7 -32 -16 -30
-80 -82 -101 -82 -11 0 -26 -10 -34 -22 -13 -22 -66 -236 -66 -267 0 -8 -9
-24 -20 -36 -17 -18 -20 -37 -23 -134 -2 -108 -1 -114 21 -129 12 -8 44 -46
69 -84 64 -96 89 -112 161 -104 31 4 69 8 83 9 14 1 42 11 61 21 36 19 37 19
65 0 15 -10 41 -23 57 -29 l30 -10 1 -120 c1 -67 7 -139 15 -162 12 -38 11
-47 -8 -91 -12 -27 -24 -76 -28 -108 -3 -33 -8 -62 -10 -65 -6 -10 -34 -270
-34 -319 0 -27 -5 -61 -10 -76 -6 -15 -8 -29 -5 -32 10 -11 47 34 86 105 22
40 53 82 70 93 16 12 36 34 44 50 21 41 45 135 51 203 3 32 17 111 31 175 43
200 53 273 53 412 0 132 -9 245 -30 363 -5 31 -15 85 -21 120 -25 143 -50 230
-72 248 -28 23 -37 24 -37 2 0 -19 -69 85 -70 105 0 20 12 14 56 -29 49 -48
69 -45 59 10 -4 20 -11 40 -16 46 -5 5 -9 15 -9 23 0 25 -191 412 -220 447 -9
11 -32 47 -50 80 -42 74 -87 137 -106 148 -22 12 -17 -9 16 -70 29 -52 42
-132 20 -118 -5 3 -10 21 -10 38 0 18 -13 57 -30 87 -17 31 -29 71 -30 92 0
20 -7 44 -16 52 -19 19 -21 20 -27 4z m33 -69 c0 -24 10 -57 24 -82 13 -23 27
-60 31 -82 7 -49 19 -70 33 -61 18 11 25 72 12 96 -6 12 -9 24 -6 27 2 3 18
-22 35 -54 16 -33 41 -74 56 -91 14 -17 57 -97 96 -179 38 -81 78 -164 88
-183 27 -50 72 -180 63 -180 -16 0 -62 57 -62 76 0 21 -17 44 -33 44 -5 0 -6
-11 -3 -24 4 -16 1 -26 -9 -30 -10 -3 -12 -11 -7 -23 13 -33 75 -138 86 -145
19 -13 24 -9 19 15 -5 21 -5 21 12 5 19 -17 26 -46 65 -265 37 -203 41 -249
42 -423 0 -133 -4 -206 -15 -260 -9 -41 -28 -129 -42 -195 -14 -65 -25 -135
-25 -155 0 -20 -11 -73 -24 -119 -21 -72 -30 -88 -75 -131 -28 -27 -51 -53
-51 -59 0 -8 -41 -76 -54 -88 -7 -7 6 160 20 267 22 170 35 241 49 275 23 54
25 66 15 85 -19 36 -32 173 -22 231 12 61 -2 89 -43 89 -12 0 -30 9 -40 20
-21 23 -62 26 -102 6 -15 -8 -58 -20 -95 -26 -87 -15 -97 -10 -165 77 -18 23
-33 46 -33 50 0 5 -16 24 -35 43 l-35 34 0 99 c0 91 2 102 25 129 14 16 25 40
25 54 0 13 5 43 10 66 46 187 44 181 73 189 61 16 113 80 153 189 15 40 11 49
-17 31 -18 -11 -23 -10 -36 8 -8 12 -25 21 -40 21 -23 0 -25 3 -19 28 24 100
27 128 17 163 -20 65 8 89 59 49 14 -11 33 -20 44 -20 16 0 17 5 11 37 -7 41
-39 108 -55 118 -19 12 -11 33 10 28 29 -8 24 10 -10 35 -26 20 -30 29 -30 72
0 58 -14 72 -29 30 -12 -37 -33 -39 -51 -5 -12 23 -11 28 11 51 13 14 23 34
21 45 -3 17 1 19 24 13 24 -6 26 -5 21 15 -3 11 -1 19 4 15 5 -3 9 -23 9 -45z
m64 -388 c-2 -2 -10 -1 -19 3 -13 5 -14 8 -3 20 11 12 14 12 19 -3 4 -9 5 -18
3 -20z m-54 -331 c0 -5 -5 -10 -11 -10 -5 0 -7 5 -4 10 3 6 8 10 11 10 2 0 4
-4 4 -10z"/>
<path d="M4494 3457 c-19 -16 -27 -36 -31 -69 -5 -41 -2 -50 21 -71 22 -21 33
-24 71 -19 40 4 45 2 56 -22 15 -33 29 -33 29 -1 0 41 -78 188 -105 199 -8 3
-26 -5 -41 -17z m75 -49 c16 -29 34 -64 39 -78 l10 -26 -60 6 c-64 6 -88 24
-88 64 0 29 36 86 54 86 8 0 28 -24 45 -52z"/>
<path d="M376 3548 c-8 -13 -22 -41 -31 -63 -9 -22 -24 -58 -34 -80 -29 -64
-51 -133 -51 -163 0 -15 -9 -35 -19 -44 -19 -16 -25 -34 -50 -145 -21 -99 -30
-148 -40 -218 -37 -260 -41 -344 -16 -369 28 -27 45 -9 45 48 0 60 25 263 35
289 4 9 11 17 17 17 16 0 38 28 38 49 0 11 -9 44 -20 73 -18 50 -19 56 -4 113
9 33 18 75 21 93 6 35 14 40 33 17 24 -29 37 -14 74 86 31 83 35 103 25 116
-12 13 -16 12 -36 -13 -31 -39 -29 -27 7 41 17 31 30 71 30 87 0 17 7 36 17
43 19 14 11 45 -11 45 -9 0 -22 -10 -30 -22z m30 -10 c-9 -5 -16 -22 -16 -39
0 -16 -22 -74 -50 -129 -27 -55 -50 -105 -50 -111 0 -25 34 -1 57 41 32 58 47
73 40 40 -5 -29 -54 -160 -61 -167 -11 -11 -51 33 -54 59 -5 49 118 335 139
322 8 -5 7 -9 -5 -16z m-78 -243 c-6 -14 -13 -23 -15 -21 -5 5 15 46 22 46 3
0 -1 -11 -7 -25z m-74 -142 c-4 -16 -13 -46 -20 -68 -16 -46 -18 -117 -5 -130
5 -6 12 -31 16 -56 6 -41 4 -47 -18 -62 -31 -20 -44 -71 -52 -217 -7 -125 -11
-150 -26 -150 -12 0 -12 164 1 248 33 219 68 405 84 448 10 26 27 15 20 -13z"/>
<path d="M2370 3030 c-15 -15 -17 -25 -11 -42 11 -31 45 -34 72 -7 19 19 23
20 31 5 5 -9 17 -16 27 -16 9 0 45 -9 78 -21 63 -21 124 -22 130 -3 2 6 -31
26 -74 44 -154 64 -218 75 -253 40z m161 -21 c35 -12 84 -32 109 -45 l45 -25
-42 6 c-23 3 -62 14 -88 25 -26 11 -53 20 -61 20 -8 0 -14 5 -14 10 0 6 -11
10 -25 10 -14 0 -25 -5 -25 -10 0 -14 -43 -30 -53 -20 -5 4 -6 17 -2 29 9 28
70 28 156 0z"/>
<path d="M2828 2892 c-7 -9 -26 -23 -42 -30 -35 -16 -25 -30 30 -42 58 -13
174 16 174 44 0 16 -30 26 -78 26 -18 0 -42 5 -52 10 -14 8 -22 6 -32 -8z
m107 -17 c36 -6 38 -8 22 -20 -22 -16 -127 -29 -157 -20 -19 6 -19 8 12 29 33
23 40 24 123 11z"/>
<path d="M3033 2873 c-7 -2 -13 -16 -13 -29 0 -20 5 -24 31 -24 27 0 30 3 27
27 -3 27 -20 37 -45 26z m31 -19 c8 -20 8 -24 -1 -24 -17 0 -35 19 -29 29 10
16 23 14 30 -5z"/>
<path d="M2636 2853 c-7 -18 9 -33 36 -33 23 0 32 18 18 35 -17 20 -46 19 -54
-2z m39 -3 c3 -5 -3 -10 -15 -10 -12 0 -18 5 -15 10 3 6 10 10 15 10 5 0 12
-4 15 -10z"/>
<path d="M262 2768 c-31 -38 -22 -106 25 -180 12 -21 23 -51 23 -68 0 -39 25
-50 52 -22 32 31 27 75 -13 125 -27 33 -35 54 -39 97 -5 57 -24 76 -48 48z
m33 -58 c5 -42 14 -64 41 -96 36 -45 41 -63 24 -95 -16 -28 -30 -23 -30 10 0
17 -5 33 -10 36 -16 10 -48 77 -55 116 -6 30 9 98 20 88 2 -2 6 -29 10 -59z"/>
<path d="M272 2507 c-15 -35 -16 -77 -2 -77 16 0 22 23 18 66 l-4 39 -12 -28z"/>
<path d="M365 2460 c-26 -27 -27 -31 -15 -59 19 -47 39 -59 56 -36 18 24 18
99 1 114 -10 8 -20 4 -42 -19z m45 -41 c0 -15 -6 -32 -13 -38 -11 -8 -17 -5
-26 15 -10 22 -9 31 5 52 13 19 18 22 25 11 5 -8 9 -26 9 -40z"/>
<path d="M131 2421 c-13 -8 -13 -26 2 -135 19 -132 33 -186 48 -186 5 0 12 7
16 15 5 14 8 14 24 -1 16 -14 24 -15 44 -6 14 6 25 16 25 22 0 6 5 8 10 5 6
-3 10 -27 10 -53 0 -58 11 -77 39 -69 12 3 24 1 27 -4 18 -30 38 11 26 56 -7
23 -5 33 7 43 14 11 12 15 -16 40 -32 27 -32 28 -10 37 14 7 22 19 22 35 0 23
-4 25 -43 25 -50 1 -58 10 -67 74 -9 66 -15 81 -30 81 -8 0 -18 -8 -24 -17
-14 -28 -41 -142 -41 -175 0 -57 -10 -22 -19 68 -11 107 -29 158 -50 145z m30
-104 c15 -129 19 -194 10 -157 -26 105 -41 243 -24 226 4 -4 10 -35 14 -69z
m122 -5 c10 -68 28 -87 80 -84 22 2 28 -1 25 -15 -2 -13 -14 -19 -46 -21 -34
-3 -45 -8 -51 -26 -12 -29 -37 -50 -55 -43 -28 11 -30 73 -5 168 13 50 28 88
33 86 6 -2 15 -31 19 -65z m93 -208 c16 -61 17 -77 4 -69 -6 4 -17 1 -25 -5
-12 -10 -17 -7 -25 15 -5 14 -10 48 -10 75 0 46 1 49 22 41 15 -5 25 -23 34
-57z"/>
<path d="M1234 2376 c-4 -9 16 -36 50 -71 60 -61 89 -68 94 -23 4 29 -36 66
-101 93 -33 13 -38 14 -43 1z m47 -19 c68 -36 97 -66 83 -88 -8 -13 -42 8 -49
31 -4 11 -20 27 -36 35 -16 9 -29 20 -29 25 0 13 3 13 31 -3z"/>
<path d="M444 2235 c-4 -9 -4 -45 -1 -81 5 -52 4 -64 -8 -64 -28 0 -16 -38 14
-48 38 -13 66 -6 78 21 10 21 10 21 26 -9 8 -16 43 -50 77 -74 50 -37 60 -49
55 -67 -4 -18 3 -27 34 -47 22 -14 42 -30 46 -36 10 -16 43 -12 65 10 30 30
53 25 122 -25 92 -68 129 -47 64 35 -36 45 -38 65 -6 55 29 -9 89 21 100 50
14 36 13 51 -6 70 -21 21 -34 16 -54 -21 -12 -22 -25 -30 -51 -32 -55 -6 -102
14 -185 78 -71 55 -82 60 -114 54 -19 -4 -39 -10 -45 -15 -15 -14 -45 -10 -45
6 0 32 -23 65 -47 65 -14 0 -23 6 -23 15 0 28 -30 16 -37 -15 -3 -17 -10 -33
-15 -36 -6 -4 -8 1 -5 12 8 29 -6 107 -20 112 -7 2 -16 -4 -19 -13z m23 -82
c-2 -16 -4 -5 -4 22 0 28 2 40 4 28 2 -13 2 -35 0 -50z m92 -9 c8 5 18 -7 29
-34 19 -45 12 -44 117 -24 25 4 42 -4 108 -54 111 -83 188 -103 234 -60 13 12
23 27 23 35 0 7 7 13 15 13 21 0 20 -48 -2 -72 -9 -10 -29 -18 -44 -18 -33 0
-79 -16 -79 -28 0 -5 16 -27 36 -50 59 -70 40 -80 -40 -22 -74 54 -109 62
-126 30 -12 -23 -58 -27 -66 -6 -3 8 -19 19 -35 25 -25 8 -28 14 -23 38 5 24
0 31 -28 48 -46 27 -98 75 -114 108 -18 34 -31 34 -46 2 -9 -21 -18 -25 -42
-23 -37 4 -48 28 -13 28 20 0 29 9 43 44 15 37 20 41 30 28 6 -8 16 -12 23 -8z"/>
<path d="M2281 2106 c-15 -18 -3 -46 19 -46 10 0 21 7 24 16 6 16 -9 44 -24
44 -4 0 -13 -6 -19 -14z m29 -21 c0 -8 -4 -15 -10 -15 -5 0 -10 7 -10 15 0 8
5 15 10 15 6 0 10 -7 10 -15z"/>
<path d="M192 2078 c-7 -7 -12 -25 -12 -40 0 -22 10 -35 53 -63 28 -20 63 -51
77 -70 26 -36 65 -46 89 -22 10 10 11 9 6 -4 -4 -11 1 -18 15 -22 22 -6 50 16
50 38 0 41 -32 61 -44 28 -6 -14 -9 -14 -22 5 -8 12 -31 29 -50 37 -19 8 -38
22 -42 32 -4 10 -16 18 -27 18 -13 0 -27 13 -40 37 -21 40 -33 46 -53 26z m43
-41 c11 -17 31 -37 44 -43 13 -7 26 -17 30 -22 3 -5 23 -17 44 -25 40 -17 51
-50 20 -61 -12 -5 -30 7 -63 42 -25 27 -59 57 -77 67 -35 21 -45 37 -37 60 9
22 17 18 39 -18z m219 -150 c-7 -20 -34 -23 -34 -4 0 19 22 39 32 29 5 -5 6
-16 2 -25z"/>
<path d="M592 1942 c4 -32 32 -37 36 -6 2 15 -3 23 -18 27 -18 5 -21 2 -18
-21z"/>
<path d="M1144 1929 c-9 -16 29 -63 57 -69 19 -5 21 -8 9 -15 -10 -6 -6 -12
21 -21 18 -7 47 -13 63 -13 28 -1 29 -2 12 -20 -20 -22 -13 -44 12 -39 9 2 25
-5 35 -15 17 -17 21 -18 34 -4 14 14 14 19 -4 49 -15 25 -25 32 -43 30 -21 -3
-22 -2 -11 12 22 26 4 37 -52 30 -46 -6 -51 -5 -39 8 18 22 7 42 -34 61 -41
20 -50 21 -60 6z m86 -49 c0 -16 -26 -11 -54 11 -39 31 -31 42 14 19 22 -11
40 -25 40 -30z m90 -40 c0 -15 -27 -23 -47 -15 -16 7 -15 9 7 15 36 11 40 11
40 0z m51 -66 c12 -33 4 -44 -15 -19 -8 11 -20 16 -30 12 -19 -7 -21 4 -4 21
19 19 38 14 49 -14z"/>
<path d="M541 1921 c-7 -5 -11 -14 -7 -19 9 -15 36 -4 36 14 0 16 -9 18 -29 5z"/>
<path d="M540 1801 c-5 -11 -10 -26 -10 -34 0 -16 -21 -27 -50 -27 -10 0 -22
-9 -25 -20 -3 -11 -15 -25 -26 -31 -14 -7 -18 -16 -14 -29 4 -13 -2 -26 -19
-41 -37 -32 -34 -82 10 -177 20 -42 45 -97 57 -121 42 -90 136 -161 153 -116
23 60 210 -73 245 -175 6 -16 27 -41 47 -56 20 -15 59 -51 85 -81 45 -48 87
-69 87 -42 0 6 -14 28 -30 50 l-31 38 35 6 c33 7 35 10 52 73 9 37 21 72 25
77 43 60 -10 255 -98 360 -18 22 -51 60 -72 85 -21 25 -59 89 -84 144 -40 84
-49 97 -62 86 -9 -8 -15 -29 -15 -56 0 -55 -14 -56 -67 -6 -41 38 -155 112
-172 112 -6 0 -15 -9 -21 -19z m55 -13 c14 -6 25 -14 25 -19 0 -4 20 -16 44
-27 24 -12 52 -32 63 -45 19 -25 54 -47 72 -47 6 0 11 18 11 39 0 68 10 76 33
29 11 -24 30 -63 42 -88 20 -42 88 -134 157 -214 15 -17 28 -36 28 -42 0 -6 7
-17 15 -24 8 -7 15 -25 15 -40 0 -15 7 -45 16 -66 20 -47 20 -104 1 -141 -8
-16 -20 -50 -26 -78 -13 -53 -21 -62 -63 -72 -16 -3 -28 -8 -28 -10 0 -3 16
-25 36 -49 52 -63 25 -54 -30 10 -25 30 -62 65 -82 77 -22 13 -43 38 -54 63
-23 55 -62 99 -128 148 -66 49 -126 62 -135 29 -8 -31 -26 -26 -71 23 -42 45
-49 56 -109 191 -53 117 -55 134 -18 174 21 23 30 40 26 52 -4 11 -2 19 5 19
6 0 15 11 22 24 7 17 20 26 41 28 25 2 32 9 39 36 9 35 15 37 53 20z"/>
<path d="M1536 1574 c-8 -20 22 -76 37 -71 19 6 20 36 3 62 -19 29 -31 32 -40
9z m34 -37 c0 -18 -2 -19 -10 -7 -13 20 -13 43 0 35 6 -3 10 -16 10 -28z"/>
<path d="M1960 1500 c-9 -16 -8 -22 5 -27 20 -7 50 20 41 36 -11 17 -34 13
-46 -9z"/>
<path d="M1882 1459 c5 -32 34 -48 53 -28 23 23 9 49 -27 49 -24 0 -29 -4 -26
-21z m38 1 c8 -5 11 -12 8 -16 -10 -9 -38 3 -38 16 0 12 10 13 30 0z"/>
<path d="M1460 1397 c0 -45 51 -89 63 -54 6 17 -19 63 -38 71 -24 9 -25 8 -25
-17z m43 -28 c3 -13 1 -19 -6 -16 -15 5 -22 37 -9 37 5 0 12 -9 15 -21z"/>
<path d="M1480 1080 c0 -61 18 -67 22 -7 4 41 4 41 15 15 7 -14 24 -37 39 -51
l27 -26 -33 -28 c-37 -31 -179 -101 -221 -110 -30 -6 -46 11 -29 32 12 14 90
40 152 50 43 7 55 20 38 40 -10 12 -9 15 6 16 15 0 14 2 -5 10 -17 7 -28 6
-35 -2 -8 -8 -8 -13 2 -16 32 -12 8 -31 -52 -43 -82 -15 -128 -43 -124 -73 5
-33 51 -34 123 -1 107 48 124 58 160 91 l37 34 -35 38 c-19 21 -38 48 -42 60
-3 12 -15 21 -26 21 -16 0 -19 -7 -19 -50z"/>
<path d="M3056 527 c-24 -17 -18 -47 12 -58 18 -7 28 -3 48 16 14 14 24 31 21
38 -5 17 -59 20 -81 4z m51 -34 c-18 -18 -47 -11 -47 11 0 9 11 16 28 18 32 4
40 -8 19 -29z"/>
<path d="M3553 385 c-27 -19 -110 -40 -250 -65 -59 -10 -135 -26 -168 -35 -52
-15 -72 -16 -146 -6 -106 14 -196 14 -204 1 -6 -9 7 -24 55 -60 l25 -19 -67
-1 c-36 0 -73 -3 -81 -6 -10 -3 -17 1 -19 13 -3 16 -13 18 -106 15 -79 -3
-113 0 -151 14 -45 16 -52 16 -73 2 -19 -12 -36 -13 -98 -5 -171 21 -295 8
-295 -33 0 -18 48 -29 253 -61 126 -19 169 -21 365 -16 141 4 248 11 292 21
39 8 95 15 127 16 92 0 199 26 335 79 165 65 277 123 281 144 4 22 -45 23 -75
2z m32 -19 c-16 -14 -61 -37 -100 -52 -38 -15 -74 -31 -79 -35 -6 -5 -15 -9
-22 -9 -7 0 -34 -10 -61 -22 -106 -47 -132 -53 -368 -84 -166 -22 -634 -26
-740 -6 -38 7 -97 15 -130 19 -64 6 -99 19 -90 32 10 17 132 22 240 11 84 -9
114 -8 132 1 18 10 35 9 89 -6 50 -13 84 -16 141 -11 61 5 78 3 87 -9 9 -12
28 -13 109 -7 109 8 107 3 32 68 l-30 25 55 -5 c154 -15 248 -17 290 -6 25 6
79 18 120 26 190 38 267 58 295 75 44 27 66 24 30 -5z"/>
</g>
</svg>
